%TF.GenerationSoftware,KiCad,Pcbnew,7.0.1*%
%TF.CreationDate,2023-10-18T00:44:09+03:00*%
%TF.ProjectId,turbo_86m_extender_board,74757262-6f5f-4383-966d-5f657874656e,rev?*%
%TF.SameCoordinates,Original*%
%TF.FileFunction,Drillmap*%
%TF.FilePolarity,Positive*%
%FSLAX45Y45*%
G04 Gerber Fmt 4.5, Leading zero omitted, Abs format (unit mm)*
G04 Created by KiCad (PCBNEW 7.0.1) date 2023-10-18 00:44:09*
%MOMM*%
%LPD*%
G01*
G04 APERTURE LIST*
%ADD10C,0.100000*%
%ADD11C,0.200000*%
G04 APERTURE END LIST*
D10*
X0Y0D02*
X23200000Y0D01*
X23200000Y-24900000D01*
X0Y-24900000D01*
X0Y0D01*
D11*
X242619Y-25217524D02*
X242619Y-25017524D01*
X242619Y-25017524D02*
X290238Y-25017524D01*
X290238Y-25017524D02*
X318810Y-25027048D01*
X318810Y-25027048D02*
X337857Y-25046095D01*
X337857Y-25046095D02*
X347381Y-25065143D01*
X347381Y-25065143D02*
X356905Y-25103238D01*
X356905Y-25103238D02*
X356905Y-25131809D01*
X356905Y-25131809D02*
X347381Y-25169905D01*
X347381Y-25169905D02*
X337857Y-25188952D01*
X337857Y-25188952D02*
X318810Y-25208000D01*
X318810Y-25208000D02*
X290238Y-25217524D01*
X290238Y-25217524D02*
X242619Y-25217524D01*
X442619Y-25217524D02*
X442619Y-25084190D01*
X442619Y-25122286D02*
X452143Y-25103238D01*
X452143Y-25103238D02*
X461667Y-25093714D01*
X461667Y-25093714D02*
X480714Y-25084190D01*
X480714Y-25084190D02*
X499762Y-25084190D01*
X566429Y-25217524D02*
X566429Y-25084190D01*
X566429Y-25017524D02*
X556905Y-25027048D01*
X556905Y-25027048D02*
X566429Y-25036571D01*
X566429Y-25036571D02*
X575952Y-25027048D01*
X575952Y-25027048D02*
X566429Y-25017524D01*
X566429Y-25017524D02*
X566429Y-25036571D01*
X690238Y-25217524D02*
X671190Y-25208000D01*
X671190Y-25208000D02*
X661667Y-25188952D01*
X661667Y-25188952D02*
X661667Y-25017524D01*
X795000Y-25217524D02*
X775952Y-25208000D01*
X775952Y-25208000D02*
X766428Y-25188952D01*
X766428Y-25188952D02*
X766428Y-25017524D01*
X1023571Y-25217524D02*
X1023571Y-25017524D01*
X1023571Y-25017524D02*
X1090238Y-25160381D01*
X1090238Y-25160381D02*
X1156905Y-25017524D01*
X1156905Y-25017524D02*
X1156905Y-25217524D01*
X1337857Y-25217524D02*
X1337857Y-25112762D01*
X1337857Y-25112762D02*
X1328333Y-25093714D01*
X1328333Y-25093714D02*
X1309286Y-25084190D01*
X1309286Y-25084190D02*
X1271190Y-25084190D01*
X1271190Y-25084190D02*
X1252143Y-25093714D01*
X1337857Y-25208000D02*
X1318810Y-25217524D01*
X1318810Y-25217524D02*
X1271190Y-25217524D01*
X1271190Y-25217524D02*
X1252143Y-25208000D01*
X1252143Y-25208000D02*
X1242619Y-25188952D01*
X1242619Y-25188952D02*
X1242619Y-25169905D01*
X1242619Y-25169905D02*
X1252143Y-25150857D01*
X1252143Y-25150857D02*
X1271190Y-25141333D01*
X1271190Y-25141333D02*
X1318810Y-25141333D01*
X1318810Y-25141333D02*
X1337857Y-25131809D01*
X1433095Y-25084190D02*
X1433095Y-25284190D01*
X1433095Y-25093714D02*
X1452143Y-25084190D01*
X1452143Y-25084190D02*
X1490238Y-25084190D01*
X1490238Y-25084190D02*
X1509286Y-25093714D01*
X1509286Y-25093714D02*
X1518809Y-25103238D01*
X1518809Y-25103238D02*
X1528333Y-25122286D01*
X1528333Y-25122286D02*
X1528333Y-25179428D01*
X1528333Y-25179428D02*
X1518809Y-25198476D01*
X1518809Y-25198476D02*
X1509286Y-25208000D01*
X1509286Y-25208000D02*
X1490238Y-25217524D01*
X1490238Y-25217524D02*
X1452143Y-25217524D01*
X1452143Y-25217524D02*
X1433095Y-25208000D01*
X1614048Y-25198476D02*
X1623571Y-25208000D01*
X1623571Y-25208000D02*
X1614048Y-25217524D01*
X1614048Y-25217524D02*
X1604524Y-25208000D01*
X1604524Y-25208000D02*
X1614048Y-25198476D01*
X1614048Y-25198476D02*
X1614048Y-25217524D01*
X1614048Y-25093714D02*
X1623571Y-25103238D01*
X1623571Y-25103238D02*
X1614048Y-25112762D01*
X1614048Y-25112762D02*
X1604524Y-25103238D01*
X1604524Y-25103238D02*
X1614048Y-25093714D01*
X1614048Y-25093714D02*
X1614048Y-25112762D01*
M02*
