%TF.GenerationSoftware,KiCad,Pcbnew,7.0.1*%
%TF.CreationDate,2023-10-18T00:44:07+03:00*%
%TF.ProjectId,turbo_86m_extender_board,74757262-6f5f-4383-966d-5f657874656e,rev?*%
%TF.SameCoordinates,Original*%
%TF.FileFunction,Soldermask,Bot*%
%TF.FilePolarity,Negative*%
%FSLAX46Y46*%
G04 Gerber Fmt 4.6, Leading zero omitted, Abs format (unit mm)*
G04 Created by KiCad (PCBNEW 7.0.1) date 2023-10-18 00:44:07*
%MOMM*%
%LPD*%
G01*
G04 APERTURE LIST*
%ADD10C,0.150000*%
%ADD11C,3.800000*%
%ADD12C,1.600000*%
G04 APERTURE END LIST*
D10*
X141750000Y-15500000D02*
X222500000Y-15500000D01*
X222500000Y-34500000D01*
X141750000Y-34500000D01*
X141750000Y-15500000D01*
G36*
X141750000Y-15500000D02*
G01*
X222500000Y-15500000D01*
X222500000Y-34500000D01*
X141750000Y-34500000D01*
X141750000Y-15500000D01*
G37*
X9500000Y-15500000D02*
X90000000Y-15500000D01*
X90000000Y-34500000D01*
X9500000Y-34500000D01*
X9500000Y-15500000D01*
G36*
X9500000Y-15500000D02*
G01*
X90000000Y-15500000D01*
X90000000Y-34500000D01*
X9500000Y-34500000D01*
X9500000Y-15500000D01*
G37*
X9500000Y-216500000D02*
X90000000Y-216500000D01*
X90000000Y-235500000D01*
X9500000Y-235500000D01*
X9500000Y-216500000D01*
G36*
X9500000Y-216500000D02*
G01*
X90000000Y-216500000D01*
X90000000Y-235500000D01*
X9500000Y-235500000D01*
X9500000Y-216500000D01*
G37*
X141750000Y-216500000D02*
X222500000Y-216500000D01*
X222500000Y-235500000D01*
X141750000Y-235500000D01*
X141750000Y-216500000D01*
G36*
X141750000Y-216500000D02*
G01*
X222500000Y-216500000D01*
X222500000Y-235500000D01*
X141750000Y-235500000D01*
X141750000Y-216500000D01*
G37*
D11*
%TO.C,D2*%
X6000000Y-246500000D03*
X93500000Y-246500000D03*
D12*
X88500000Y-244000000D03*
X86000000Y-244000000D03*
X83500000Y-244000000D03*
X81000000Y-244000000D03*
X78500000Y-244000000D03*
X76000000Y-244000000D03*
X73500000Y-244000000D03*
X71000000Y-244000000D03*
X68500000Y-244000000D03*
X66000000Y-244000000D03*
X63500000Y-244000000D03*
X61000000Y-244000000D03*
X58500000Y-244000000D03*
X56000000Y-244000000D03*
X53500000Y-244000000D03*
X51000000Y-244000000D03*
X48500000Y-244000000D03*
X46000000Y-244000000D03*
X43500000Y-244000000D03*
X41000000Y-244000000D03*
X38500000Y-244000000D03*
X36000000Y-244000000D03*
X33500000Y-244000000D03*
X31000000Y-244000000D03*
X28500000Y-244000000D03*
X26000000Y-244000000D03*
X23500000Y-244000000D03*
X21000000Y-244000000D03*
X18500000Y-244000000D03*
X16000000Y-244000000D03*
X13500000Y-244000000D03*
X11000000Y-244000000D03*
X88500000Y-241500000D03*
X86000000Y-241500000D03*
X83500000Y-241500000D03*
X81000000Y-241500000D03*
X78500000Y-241500000D03*
X76000000Y-241500000D03*
X73500000Y-241500000D03*
X71000000Y-241500000D03*
X68500000Y-241500000D03*
X66000000Y-241500000D03*
X63500000Y-241500000D03*
X61000000Y-241500000D03*
X58500000Y-241500000D03*
X56000000Y-241500000D03*
X53500000Y-241500000D03*
X51000000Y-241500000D03*
X48500000Y-241500000D03*
X46000000Y-241500000D03*
X43500000Y-241500000D03*
X41000000Y-241500000D03*
X38500000Y-241500000D03*
X36000000Y-241500000D03*
X33500000Y-241500000D03*
X31000000Y-241500000D03*
X28500000Y-241500000D03*
X26000000Y-241500000D03*
X23500000Y-241500000D03*
X21000000Y-241500000D03*
X18500000Y-241500000D03*
X16000000Y-241500000D03*
X13500000Y-241500000D03*
X11000000Y-241500000D03*
X88500000Y-239000000D03*
X86000000Y-239000000D03*
X83500000Y-239000000D03*
X81000000Y-239000000D03*
X78500000Y-239000000D03*
X76000000Y-239000000D03*
X73500000Y-239000000D03*
X71000000Y-239000000D03*
X68500000Y-239000000D03*
X66000000Y-239000000D03*
X63500000Y-239000000D03*
X61000000Y-239000000D03*
X58500000Y-239000000D03*
X56000000Y-239000000D03*
X53500000Y-239000000D03*
X51000000Y-239000000D03*
X48500000Y-239000000D03*
X46000000Y-239000000D03*
X43500000Y-239000000D03*
X41000000Y-239000000D03*
X38500000Y-239000000D03*
X36000000Y-239000000D03*
X33500000Y-239000000D03*
X31000000Y-239000000D03*
X28500000Y-239000000D03*
X26000000Y-239000000D03*
X23500000Y-239000000D03*
X21000000Y-239000000D03*
X18500000Y-239000000D03*
X16000000Y-239000000D03*
X13500000Y-239000000D03*
X11000000Y-239000000D03*
%TD*%
D11*
%TO.C,D4*%
X138500000Y-246500000D03*
X226000000Y-246500000D03*
D12*
X221000000Y-244000000D03*
X218500000Y-244000000D03*
X216000000Y-244000000D03*
X213500000Y-244000000D03*
X211000000Y-244000000D03*
X208500000Y-244000000D03*
X206000000Y-244000000D03*
X203500000Y-244000000D03*
X201000000Y-244000000D03*
X198500000Y-244000000D03*
X196000000Y-244000000D03*
X193500000Y-244000000D03*
X191000000Y-244000000D03*
X188500000Y-244000000D03*
X186000000Y-244000000D03*
X183500000Y-244000000D03*
X181000000Y-244000000D03*
X178500000Y-244000000D03*
X176000000Y-244000000D03*
X173500000Y-244000000D03*
X171000000Y-244000000D03*
X168500000Y-244000000D03*
X166000000Y-244000000D03*
X163500000Y-244000000D03*
X161000000Y-244000000D03*
X158500000Y-244000000D03*
X156000000Y-244000000D03*
X153500000Y-244000000D03*
X151000000Y-244000000D03*
X148500000Y-244000000D03*
X146000000Y-244000000D03*
X143500000Y-244000000D03*
X221000000Y-241500000D03*
X218500000Y-241500000D03*
X216000000Y-241500000D03*
X213500000Y-241500000D03*
X211000000Y-241500000D03*
X208500000Y-241500000D03*
X206000000Y-241500000D03*
X203500000Y-241500000D03*
X201000000Y-241500000D03*
X198500000Y-241500000D03*
X196000000Y-241500000D03*
X193500000Y-241500000D03*
X191000000Y-241500000D03*
X188500000Y-241500000D03*
X186000000Y-241500000D03*
X183500000Y-241500000D03*
X181000000Y-241500000D03*
X178500000Y-241500000D03*
X176000000Y-241500000D03*
X173500000Y-241500000D03*
X171000000Y-241500000D03*
X168500000Y-241500000D03*
X166000000Y-241500000D03*
X163500000Y-241500000D03*
X161000000Y-241500000D03*
X158500000Y-241500000D03*
X156000000Y-241500000D03*
X153500000Y-241500000D03*
X151000000Y-241500000D03*
X148500000Y-241500000D03*
X146000000Y-241500000D03*
X143500000Y-241500000D03*
X221000000Y-239000000D03*
X218500000Y-239000000D03*
X216000000Y-239000000D03*
X213500000Y-239000000D03*
X211000000Y-239000000D03*
X208500000Y-239000000D03*
X206000000Y-239000000D03*
X203500000Y-239000000D03*
X201000000Y-239000000D03*
X198500000Y-239000000D03*
X196000000Y-239000000D03*
X193500000Y-239000000D03*
X191000000Y-239000000D03*
X188500000Y-239000000D03*
X186000000Y-239000000D03*
X183500000Y-239000000D03*
X181000000Y-239000000D03*
X178500000Y-239000000D03*
X176000000Y-239000000D03*
X173500000Y-239000000D03*
X171000000Y-239000000D03*
X168500000Y-239000000D03*
X166000000Y-239000000D03*
X163500000Y-239000000D03*
X161000000Y-239000000D03*
X158500000Y-239000000D03*
X156000000Y-239000000D03*
X153500000Y-239000000D03*
X151000000Y-239000000D03*
X148500000Y-239000000D03*
X146000000Y-239000000D03*
X143500000Y-239000000D03*
%TD*%
D11*
%TO.C,D1*%
X93500000Y-2500000D03*
X6000000Y-2500000D03*
D12*
X11000000Y-5000000D03*
X13500000Y-5000000D03*
X16000000Y-5000000D03*
X18500000Y-5000000D03*
X21000000Y-5000000D03*
X23500000Y-5000000D03*
X26000000Y-5000000D03*
X28500000Y-5000000D03*
X31000000Y-5000000D03*
X33500000Y-5000000D03*
X36000000Y-5000000D03*
X38500000Y-5000000D03*
X41000000Y-5000000D03*
X43500000Y-5000000D03*
X46000000Y-5000000D03*
X48500000Y-5000000D03*
X51000000Y-5000000D03*
X53500000Y-5000000D03*
X56000000Y-5000000D03*
X58500000Y-5000000D03*
X61000000Y-5000000D03*
X63500000Y-5000000D03*
X66000000Y-5000000D03*
X68500000Y-5000000D03*
X71000000Y-5000000D03*
X73500000Y-5000000D03*
X76000000Y-5000000D03*
X78500000Y-5000000D03*
X81000000Y-5000000D03*
X83500000Y-5000000D03*
X86000000Y-5000000D03*
X88500000Y-5000000D03*
X11000000Y-7500000D03*
X13500000Y-7500000D03*
X16000000Y-7500000D03*
X18500000Y-7500000D03*
X21000000Y-7500000D03*
X23500000Y-7500000D03*
X26000000Y-7500000D03*
X28500000Y-7500000D03*
X31000000Y-7500000D03*
X33500000Y-7500000D03*
X36000000Y-7500000D03*
X38500000Y-7500000D03*
X41000000Y-7500000D03*
X43500000Y-7500000D03*
X46000000Y-7500000D03*
X48500000Y-7500000D03*
X51000000Y-7500000D03*
X53500000Y-7500000D03*
X56000000Y-7500000D03*
X58500000Y-7500000D03*
X61000000Y-7500000D03*
X63500000Y-7500000D03*
X66000000Y-7500000D03*
X68500000Y-7500000D03*
X71000000Y-7500000D03*
X73500000Y-7500000D03*
X76000000Y-7500000D03*
X78500000Y-7500000D03*
X81000000Y-7500000D03*
X83500000Y-7500000D03*
X86000000Y-7500000D03*
X88500000Y-7500000D03*
X11000000Y-10000000D03*
X13500000Y-10000000D03*
X16000000Y-10000000D03*
X18500000Y-10000000D03*
X21000000Y-10000000D03*
X23500000Y-10000000D03*
X26000000Y-10000000D03*
X28500000Y-10000000D03*
X31000000Y-10000000D03*
X33500000Y-10000000D03*
X36000000Y-10000000D03*
X38500000Y-10000000D03*
X41000000Y-10000000D03*
X43500000Y-10000000D03*
X46000000Y-10000000D03*
X48500000Y-10000000D03*
X51000000Y-10000000D03*
X53500000Y-10000000D03*
X56000000Y-10000000D03*
X58500000Y-10000000D03*
X61000000Y-10000000D03*
X63500000Y-10000000D03*
X66000000Y-10000000D03*
X68500000Y-10000000D03*
X71000000Y-10000000D03*
X73500000Y-10000000D03*
X76000000Y-10000000D03*
X78500000Y-10000000D03*
X81000000Y-10000000D03*
X83500000Y-10000000D03*
X86000000Y-10000000D03*
X88500000Y-10000000D03*
%TD*%
D11*
%TO.C,D3*%
X226000000Y-2500000D03*
X138500000Y-2500000D03*
D12*
X143500000Y-5000000D03*
X146000000Y-5000000D03*
X148500000Y-5000000D03*
X151000000Y-5000000D03*
X153500000Y-5000000D03*
X156000000Y-5000000D03*
X158500000Y-5000000D03*
X161000000Y-5000000D03*
X163500000Y-5000000D03*
X166000000Y-5000000D03*
X168500000Y-5000000D03*
X171000000Y-5000000D03*
X173500000Y-5000000D03*
X176000000Y-5000000D03*
X178500000Y-5000000D03*
X181000000Y-5000000D03*
X183500000Y-5000000D03*
X186000000Y-5000000D03*
X188500000Y-5000000D03*
X191000000Y-5000000D03*
X193500000Y-5000000D03*
X196000000Y-5000000D03*
X198500000Y-5000000D03*
X201000000Y-5000000D03*
X203500000Y-5000000D03*
X206000000Y-5000000D03*
X208500000Y-5000000D03*
X211000000Y-5000000D03*
X213500000Y-5000000D03*
X216000000Y-5000000D03*
X218500000Y-5000000D03*
X221000000Y-5000000D03*
X143500000Y-7500000D03*
X146000000Y-7500000D03*
X148500000Y-7500000D03*
X151000000Y-7500000D03*
X153500000Y-7500000D03*
X156000000Y-7500000D03*
X158500000Y-7500000D03*
X161000000Y-7500000D03*
X163500000Y-7500000D03*
X166000000Y-7500000D03*
X168500000Y-7500000D03*
X171000000Y-7500000D03*
X173500000Y-7500000D03*
X176000000Y-7500000D03*
X178500000Y-7500000D03*
X181000000Y-7500000D03*
X183500000Y-7500000D03*
X186000000Y-7500000D03*
X188500000Y-7500000D03*
X191000000Y-7500000D03*
X193500000Y-7500000D03*
X196000000Y-7500000D03*
X198500000Y-7500000D03*
X201000000Y-7500000D03*
X203500000Y-7500000D03*
X206000000Y-7500000D03*
X208500000Y-7500000D03*
X211000000Y-7500000D03*
X213500000Y-7500000D03*
X216000000Y-7500000D03*
X218500000Y-7500000D03*
X221000000Y-7500000D03*
X143500000Y-10000000D03*
X146000000Y-10000000D03*
X148500000Y-10000000D03*
X151000000Y-10000000D03*
X153500000Y-10000000D03*
X156000000Y-10000000D03*
X158500000Y-10000000D03*
X161000000Y-10000000D03*
X163500000Y-10000000D03*
X166000000Y-10000000D03*
X168500000Y-10000000D03*
X171000000Y-10000000D03*
X173500000Y-10000000D03*
X176000000Y-10000000D03*
X178500000Y-10000000D03*
X181000000Y-10000000D03*
X183500000Y-10000000D03*
X186000000Y-10000000D03*
X188500000Y-10000000D03*
X191000000Y-10000000D03*
X193500000Y-10000000D03*
X196000000Y-10000000D03*
X198500000Y-10000000D03*
X201000000Y-10000000D03*
X203500000Y-10000000D03*
X206000000Y-10000000D03*
X208500000Y-10000000D03*
X211000000Y-10000000D03*
X213500000Y-10000000D03*
X216000000Y-10000000D03*
X218500000Y-10000000D03*
X221000000Y-10000000D03*
%TD*%
M02*
