M48
; DRILL file {KiCad 7.0.1} date Wed Oct 18 00:44:09 2023
; FORMAT={-:-/ absolute / metric / decimal}
; #@! TF.CreationDate,2023-10-18T00:44:09+03:00
; #@! TF.GenerationSoftware,Kicad,Pcbnew,7.0.1
; #@! TF.FileFunction,Plated,1,2,PTH
FMAT,2
METRIC
; #@! TA.AperFunction,Plated,PTH,ComponentDrill
T1C1.000
; #@! TA.AperFunction,Plated,PTH,ComponentDrill
T2C2.800
%
G90
G05
T1
X11.0Y-5.0
X11.0Y-7.5
X11.0Y-10.0
X11.0Y-239.0
X11.0Y-241.5
X11.0Y-244.0
X13.5Y-5.0
X13.5Y-7.5
X13.5Y-10.0
X13.5Y-239.0
X13.5Y-241.5
X13.5Y-244.0
X16.0Y-5.0
X16.0Y-7.5
X16.0Y-10.0
X16.0Y-239.0
X16.0Y-241.5
X16.0Y-244.0
X18.5Y-5.0
X18.5Y-7.5
X18.5Y-10.0
X18.5Y-239.0
X18.5Y-241.5
X18.5Y-244.0
X21.0Y-5.0
X21.0Y-7.5
X21.0Y-10.0
X21.0Y-239.0
X21.0Y-241.5
X21.0Y-244.0
X23.5Y-5.0
X23.5Y-7.5
X23.5Y-10.0
X23.5Y-239.0
X23.5Y-241.5
X23.5Y-244.0
X26.0Y-5.0
X26.0Y-7.5
X26.0Y-10.0
X26.0Y-239.0
X26.0Y-241.5
X26.0Y-244.0
X28.5Y-5.0
X28.5Y-7.5
X28.5Y-10.0
X28.5Y-239.0
X28.5Y-241.5
X28.5Y-244.0
X31.0Y-5.0
X31.0Y-7.5
X31.0Y-10.0
X31.0Y-239.0
X31.0Y-241.5
X31.0Y-244.0
X33.5Y-5.0
X33.5Y-7.5
X33.5Y-10.0
X33.5Y-239.0
X33.5Y-241.5
X33.5Y-244.0
X36.0Y-5.0
X36.0Y-7.5
X36.0Y-10.0
X36.0Y-239.0
X36.0Y-241.5
X36.0Y-244.0
X38.5Y-5.0
X38.5Y-7.5
X38.5Y-10.0
X38.5Y-239.0
X38.5Y-241.5
X38.5Y-244.0
X41.0Y-5.0
X41.0Y-7.5
X41.0Y-10.0
X41.0Y-239.0
X41.0Y-241.5
X41.0Y-244.0
X43.5Y-5.0
X43.5Y-7.5
X43.5Y-10.0
X43.5Y-239.0
X43.5Y-241.5
X43.5Y-244.0
X46.0Y-5.0
X46.0Y-7.5
X46.0Y-10.0
X46.0Y-239.0
X46.0Y-241.5
X46.0Y-244.0
X48.5Y-5.0
X48.5Y-7.5
X48.5Y-10.0
X48.5Y-239.0
X48.5Y-241.5
X48.5Y-244.0
X51.0Y-5.0
X51.0Y-7.5
X51.0Y-10.0
X51.0Y-239.0
X51.0Y-241.5
X51.0Y-244.0
X53.5Y-5.0
X53.5Y-7.5
X53.5Y-10.0
X53.5Y-239.0
X53.5Y-241.5
X53.5Y-244.0
X56.0Y-5.0
X56.0Y-7.5
X56.0Y-10.0
X56.0Y-239.0
X56.0Y-241.5
X56.0Y-244.0
X58.5Y-5.0
X58.5Y-7.5
X58.5Y-10.0
X58.5Y-239.0
X58.5Y-241.5
X58.5Y-244.0
X61.0Y-5.0
X61.0Y-7.5
X61.0Y-10.0
X61.0Y-239.0
X61.0Y-241.5
X61.0Y-244.0
X63.5Y-5.0
X63.5Y-7.5
X63.5Y-10.0
X63.5Y-239.0
X63.5Y-241.5
X63.5Y-244.0
X66.0Y-5.0
X66.0Y-7.5
X66.0Y-10.0
X66.0Y-239.0
X66.0Y-241.5
X66.0Y-244.0
X68.5Y-5.0
X68.5Y-7.5
X68.5Y-10.0
X68.5Y-239.0
X68.5Y-241.5
X68.5Y-244.0
X71.0Y-5.0
X71.0Y-7.5
X71.0Y-10.0
X71.0Y-239.0
X71.0Y-241.5
X71.0Y-244.0
X73.5Y-5.0
X73.5Y-7.5
X73.5Y-10.0
X73.5Y-239.0
X73.5Y-241.5
X73.5Y-244.0
X76.0Y-5.0
X76.0Y-7.5
X76.0Y-10.0
X76.0Y-239.0
X76.0Y-241.5
X76.0Y-244.0
X78.5Y-5.0
X78.5Y-7.5
X78.5Y-10.0
X78.5Y-239.0
X78.5Y-241.5
X78.5Y-244.0
X81.0Y-5.0
X81.0Y-7.5
X81.0Y-10.0
X81.0Y-239.0
X81.0Y-241.5
X81.0Y-244.0
X83.5Y-5.0
X83.5Y-7.5
X83.5Y-10.0
X83.5Y-239.0
X83.5Y-241.5
X83.5Y-244.0
X86.0Y-5.0
X86.0Y-7.5
X86.0Y-10.0
X86.0Y-239.0
X86.0Y-241.5
X86.0Y-244.0
X88.5Y-5.0
X88.5Y-7.5
X88.5Y-10.0
X88.5Y-239.0
X88.5Y-241.5
X88.5Y-244.0
X143.5Y-5.0
X143.5Y-7.5
X143.5Y-10.0
X143.5Y-239.0
X143.5Y-241.5
X143.5Y-244.0
X146.0Y-5.0
X146.0Y-7.5
X146.0Y-10.0
X146.0Y-239.0
X146.0Y-241.5
X146.0Y-244.0
X148.5Y-5.0
X148.5Y-7.5
X148.5Y-10.0
X148.5Y-239.0
X148.5Y-241.5
X148.5Y-244.0
X151.0Y-5.0
X151.0Y-7.5
X151.0Y-10.0
X151.0Y-239.0
X151.0Y-241.5
X151.0Y-244.0
X153.5Y-5.0
X153.5Y-7.5
X153.5Y-10.0
X153.5Y-239.0
X153.5Y-241.5
X153.5Y-244.0
X156.0Y-5.0
X156.0Y-7.5
X156.0Y-10.0
X156.0Y-239.0
X156.0Y-241.5
X156.0Y-244.0
X158.5Y-5.0
X158.5Y-7.5
X158.5Y-10.0
X158.5Y-239.0
X158.5Y-241.5
X158.5Y-244.0
X161.0Y-5.0
X161.0Y-7.5
X161.0Y-10.0
X161.0Y-239.0
X161.0Y-241.5
X161.0Y-244.0
X163.5Y-5.0
X163.5Y-7.5
X163.5Y-10.0
X163.5Y-239.0
X163.5Y-241.5
X163.5Y-244.0
X166.0Y-5.0
X166.0Y-7.5
X166.0Y-10.0
X166.0Y-239.0
X166.0Y-241.5
X166.0Y-244.0
X168.5Y-5.0
X168.5Y-7.5
X168.5Y-10.0
X168.5Y-239.0
X168.5Y-241.5
X168.5Y-244.0
X171.0Y-5.0
X171.0Y-7.5
X171.0Y-10.0
X171.0Y-239.0
X171.0Y-241.5
X171.0Y-244.0
X173.5Y-5.0
X173.5Y-7.5
X173.5Y-10.0
X173.5Y-239.0
X173.5Y-241.5
X173.5Y-244.0
X176.0Y-5.0
X176.0Y-7.5
X176.0Y-10.0
X176.0Y-239.0
X176.0Y-241.5
X176.0Y-244.0
X178.5Y-5.0
X178.5Y-7.5
X178.5Y-10.0
X178.5Y-239.0
X178.5Y-241.5
X178.5Y-244.0
X181.0Y-5.0
X181.0Y-7.5
X181.0Y-10.0
X181.0Y-239.0
X181.0Y-241.5
X181.0Y-244.0
X183.5Y-5.0
X183.5Y-7.5
X183.5Y-10.0
X183.5Y-239.0
X183.5Y-241.5
X183.5Y-244.0
X186.0Y-5.0
X186.0Y-7.5
X186.0Y-10.0
X186.0Y-239.0
X186.0Y-241.5
X186.0Y-244.0
X188.5Y-5.0
X188.5Y-7.5
X188.5Y-10.0
X188.5Y-239.0
X188.5Y-241.5
X188.5Y-244.0
X191.0Y-5.0
X191.0Y-7.5
X191.0Y-10.0
X191.0Y-239.0
X191.0Y-241.5
X191.0Y-244.0
X193.5Y-5.0
X193.5Y-7.5
X193.5Y-10.0
X193.5Y-239.0
X193.5Y-241.5
X193.5Y-244.0
X196.0Y-5.0
X196.0Y-7.5
X196.0Y-10.0
X196.0Y-239.0
X196.0Y-241.5
X196.0Y-244.0
X198.5Y-5.0
X198.5Y-7.5
X198.5Y-10.0
X198.5Y-239.0
X198.5Y-241.5
X198.5Y-244.0
X201.0Y-5.0
X201.0Y-7.5
X201.0Y-10.0
X201.0Y-239.0
X201.0Y-241.5
X201.0Y-244.0
X203.5Y-5.0
X203.5Y-7.5
X203.5Y-10.0
X203.5Y-239.0
X203.5Y-241.5
X203.5Y-244.0
X206.0Y-5.0
X206.0Y-7.5
X206.0Y-10.0
X206.0Y-239.0
X206.0Y-241.5
X206.0Y-244.0
X208.5Y-5.0
X208.5Y-7.5
X208.5Y-10.0
X208.5Y-239.0
X208.5Y-241.5
X208.5Y-244.0
X211.0Y-5.0
X211.0Y-7.5
X211.0Y-10.0
X211.0Y-239.0
X211.0Y-241.5
X211.0Y-244.0
X213.5Y-5.0
X213.5Y-7.5
X213.5Y-10.0
X213.5Y-239.0
X213.5Y-241.5
X213.5Y-244.0
X216.0Y-5.0
X216.0Y-7.5
X216.0Y-10.0
X216.0Y-239.0
X216.0Y-241.5
X216.0Y-244.0
X218.5Y-5.0
X218.5Y-7.5
X218.5Y-10.0
X218.5Y-239.0
X218.5Y-241.5
X218.5Y-244.0
X221.0Y-5.0
X221.0Y-7.5
X221.0Y-10.0
X221.0Y-239.0
X221.0Y-241.5
X221.0Y-244.0
T2
X6.0Y-2.5
X6.0Y-246.5
X93.5Y-2.5
X93.5Y-246.5
X138.5Y-2.5
X138.5Y-246.5
X226.0Y-2.5
X226.0Y-246.5
T0
M30
